{"glyphs":{":":{"x_min":0,"x_max":271,"ha":271,"o":"m 84 411 l 100 561 l 251 561 l 235 411 z m 47 61 l 63 209 l 214 209 l 198 61 z"},"$":{"x_min":0,"x_max":487,"ha":487,"o":"m 198 -106 l 208 -11 q 104 -6 60 56 q 22 108 22 205 q 22 224 24 245 l 178 269 q 175 244 175 223 q 175 181 185 157 q 198 122 234 122 q 282 122 289 183 q 290 192 290 201 q 290 224 283 243 q 274 271 259 290 q 244 309 216 335 l 148 400 q 125 422 110 441 q 95 460 82 485 q 68 510 64 541 q 62 558 62 576 q 62 592 63 610 q 73 703 132 758 q 191 812 286 819 l 295 911 l 345 911 l 336 820 q 372 817 400 806 q 428 794 444 777 q 459 759 471 737 q 482 714 485 690 q 487 666 489 640 q 490 631 490 622 q 490 606 488 592 l 334 571 q 337 605 337 631 q 337 633 337 635 q 337 662 326 678 q 315 692 294 692 q 293 692 292 692 q 267 691 252 672 q 237 652 234 627 q 233 620 233 613 q 233 602 235 592 q 238 576 242 564 q 247 553 258 539 q 269 525 275 518 q 282 511 296 497 l 362 434 q 388 409 406 385 q 424 362 439 332 q 454 303 460 268 q 463 248 463 226 q 463 209 461 192 q 453 111 397 55 q 342 -1 258 -10 l 248 -106 z"},"?":{"x_min":0,"x_max":485,"ha":485,"o":"m 102 0 l 118 152 l 275 152 l 259 0 z m 129 212 l 143 341 q 223 402 276 475 q 329 547 333 624 q 333 626 333 629 q 333 657 319 670 q 305 685 281 685 q 258 685 242 668 q 227 652 226 626 q 226 622 226 617 q 226 599 231 575 l 83 542 q 76 584 76 609 q 76 618 77 625 q 78 667 91 703 q 104 738 130 765 q 156 792 197 808 q 238 823 292 823 q 397 822 449 769 q 492 724 492 648 q 492 633 491 617 q 481 530 423 446 q 364 362 285 310 l 275 212 z"},"<":{"x_min":0,"x_max":397,"ha":397,"o":"m 325 93 l 39 308 l 52 435 l 383 650 l 369 509 l 161 372 l 339 233 z"},"'":{"x_min":0,"x_max":243,"ha":243,"o":"m 76 512 l 106 810 l 238 810 l 154 512 z"},"=":{"x_min":0,"x_max":442,"ha":442,"o":"m 84 439 l 94 538 l 412 538 l 401 439 z m 64 250 l 74 349 l 392 349 l 382 250 z"},"a":{"x_min":0,"x_max":474,"ha":474,"o":"m 214 102 q 239 102 262 130 l 279 288 q 238 268 209 233 q 179 198 175 164 q 175 158 175 152 q 175 132 184 118 q 194 102 214 102 z m 144 -10 q 103 -9 74 12 q 45 33 33 64 q 24 89 24 115 q 24 123 25 131 q 28 159 38 184 q 47 208 59 227 q 71 245 91 262 q 111 279 126 289 q 142 299 167 312 q 193 324 208 329 q 222 335 250 345 q 277 355 287 359 l 292 416 q 293 423 293 430 q 293 445 289 455 q 283 469 263 469 q 229 469 221 421 l 213 379 l 63 385 q 63 387 65 395 q 66 403 67 404 q 84 499 140 543 q 195 588 291 588 q 376 588 415 541 q 447 501 448 440 q 448 428 446 414 l 418 145 q 413 95 413 31 q 413 16 413 0 l 271 0 q 265 69 265 82 q 250 42 218 16 q 187 -10 144 -10 z"},"L":{"x_min":0,"x_max":437,"ha":437,"o":"m 35 0 l 120 810 l 296 810 l 224 119 l 410 119 l 397 0 z"},"3":{"x_min":0,"x_max":535,"ha":535,"o":"m 246 -14 q 185 -14 143 4 q 101 21 79 56 q 58 89 51 134 q 47 157 47 185 q 47 209 50 237 l 53 266 l 218 266 q 215 254 215 238 q 212 213 212 194 q 212 165 218 149 q 228 124 263 124 q 296 124 310 149 q 324 175 330 233 q 332 253 332 270 q 332 307 321 327 q 306 357 257 358 l 229 358 l 241 476 l 267 476 q 318 476 340 503 q 361 530 368 593 q 370 609 370 623 q 370 650 362 666 q 352 689 318 690 q 286 690 271 665 q 257 639 251 589 q 251 588 249 569 q 247 549 247 548 l 83 548 l 87 596 q 99 704 164 763 q 228 822 332 822 q 438 822 490 766 q 533 719 533 639 q 533 621 531 603 q 524 534 490 486 q 457 438 412 426 q 495 394 495 278 q 495 259 493 238 q 487 181 470 136 q 454 91 424 57 q 395 22 350 4 q 305 -14 246 -14 z"},";":{"x_min":0,"x_max":279,"ha":279,"o":"m 85 424 l 101 575 l 252 575 l 236 424 z m 53 -113 l 48 -60 q 120 -50 127 21 l 44 21 l 60 171 l 212 171 l 198 40 q 182 -111 53 -113 z"},"J":{"x_min":0,"x_max":347,"ha":347,"o":"m -14 -20 l -1 104 q 1 104 5 104 q 57 104 78 119 q 101 136 106 188 l 171 810 l 347 810 l 281 181 q 275 128 262 93 q 249 57 225 31 q 201 5 163 -7 q 125 -20 71 -20 z"},"V":{"x_min":0,"x_max":521,"ha":521,"o":"m 145 0 l 81 810 l 232 810 l 263 262 l 403 810 l 562 810 l 328 0 z"},"\"":{"x_min":0,"x_max":358,"ha":358,"o":"m 245 512 l 276 810 l 413 810 l 319 512 z m 61 512 l 92 810 l 229 810 l 135 512 z"},"7":{"x_min":0,"x_max":535,"ha":535,"o":"m 107 0 l 352 685 l 124 685 l 137 810 l 525 810 l 514 694 l 267 0 z"},"S":{"x_min":0,"x_max":509,"ha":509,"o":"m 246 -11 q 131 -11 81 50 q 40 102 40 205 q 40 224 41 245 l 195 269 q 192 244 192 223 q 192 181 202 157 q 216 122 251 122 q 299 122 306 183 q 307 193 307 203 q 307 237 293 263 q 275 295 233 335 l 166 400 q 142 422 127 441 q 112 460 99 485 q 85 510 81 541 q 79 558 79 576 q 79 592 81 610 q 91 710 156 765 q 222 820 327 821 q 363 821 391 813 q 419 806 438 793 q 457 780 471 762 q 485 744 492 723 q 499 703 503 680 q 507 661 507 642 q 507 639 507 636 q 506 613 505 592 l 351 571 q 354 605 354 631 q 354 633 354 635 q 354 662 343 678 q 333 692 312 692 q 310 692 309 692 q 284 691 269 672 q 254 652 251 627 q 250 620 250 613 q 250 602 252 592 q 255 576 260 564 q 264 553 275 539 q 286 525 292 518 q 299 511 313 497 l 379 434 q 405 409 423 385 q 441 362 456 332 q 471 303 477 268 q 480 248 480 226 q 480 209 479 192 q 469 104 405 46 q 341 -11 246 -11 z"},"}":{"x_min":0,"x_max":378,"ha":378,"o":"m -7 -195 l 5 -87 q 27 -87 40 -84 q 53 -82 63 -76 q 74 -70 79 -56 q 85 -42 89 -24 q 92 -5 96 27 l 105 123 q 115 212 139 258 q 163 305 212 316 q 165 327 151 374 q 142 401 142 445 q 142 474 146 509 l 156 605 q 159 632 160 648 q 161 665 159 679 q 157 693 153 700 q 149 707 140 711 q 131 716 119 718 q 108 719 89 719 l 101 827 q 205 827 251 807 q 297 787 308 740 q 312 717 312 686 q 312 654 307 613 l 298 528 q 294 488 292 467 q 291 451 291 434 q 291 430 291 426 q 291 405 293 397 q 296 389 303 382 q 311 375 320 374 q 330 373 346 373 l 334 259 q 317 259 308 258 q 298 256 289 250 q 281 243 276 235 q 272 227 267 206 q 263 186 260 165 q 257 144 253 104 l 245 19 q 241 -15 238 -37 q 234 -59 228 -82 q 221 -105 213 -119 q 205 -134 191 -148 q 178 -162 160 -170 q 143 -178 118 -184 q 94 -190 63 -192 q 33 -195 -7 -195 z"},"Z":{"x_min":0,"x_max":432,"ha":432,"o":"m 8 0 l 20 107 l 279 690 l 89 690 l 102 810 l 466 810 l 456 713 l 189 119 l 395 119 l 383 0 z"},"x":{"x_min":0,"x_max":439,"ha":439,"o":"m -15 0 l 142 316 l 52 578 l 213 578 l 262 437 l 331 578 l 457 578 l 311 292 l 411 0 l 250 0 l 195 160 l 120 0 z"},")":{"x_min":0,"x_max":322,"ha":322,"o":"m -9 -182 l 3 -69 q 55 -69 84 23 q 113 116 134 315 q 141 381 144 430 q 148 479 149 525 q 150 540 150 553 q 149 582 147 604 q 145 635 137 659 q 130 684 117 696 q 104 707 84 707 l 96 819 q 132 819 161 810 q 190 802 212 787 q 233 773 249 749 q 264 725 274 699 q 284 673 289 637 q 294 601 296 567 q 297 551 297 531 q 297 511 296 488 q 294 443 291 405 q 288 366 282 315 q 277 268 272 231 q 268 194 260 150 q 252 106 243 73 q 235 39 222 3 q 209 -33 194 -59 q 179 -85 158 -110 q 137 -134 113 -149 q 89 -165 58 -173 q 27 -182 -9 -182 z"},"&":{"x_min":0,"x_max":573,"ha":573,"o":"m 271 491 q 294 528 317 576 q 340 624 344 658 q 344 662 344 665 q 344 683 334 693 q 322 707 302 707 q 282 707 267 690 q 252 674 250 647 q 249 639 249 629 q 249 614 251 596 q 255 567 262 531 q 270 495 271 491 z m 213 97 q 261 97 292 135 q 226 300 220 320 q 172 253 166 188 q 165 179 165 171 q 165 142 176 122 q 190 97 213 97 z m 199 -12 q 118 -12 72 41 q 34 85 34 150 q 34 163 35 177 q 42 247 82 314 q 122 381 176 428 q 169 446 154 480 q 139 515 132 535 q 124 555 119 584 q 115 603 115 621 q 115 631 116 641 q 124 718 177 770 q 229 821 308 821 q 386 821 432 775 q 472 735 472 673 q 472 662 470 650 q 468 630 462 610 q 456 589 449 573 q 441 557 429 539 q 417 521 408 509 q 398 497 382 480 q 367 463 357 454 q 348 445 331 429 q 314 414 307 406 l 384 231 q 397 252 410 302 q 423 352 430 397 l 542 397 q 534 317 512 258 q 490 199 454 142 q 463 129 480 120 q 498 111 517 109 l 504 -11 q 486 -15 477 -15 q 467 -15 458 -12 q 448 -10 441 -8 q 434 -5 424 1 q 415 7 410 10 q 405 13 396 22 q 386 30 383 33 q 380 36 370 46 q 361 56 359 57 q 330 24 288 6 q 246 -12 199 -12 z"},"_":{"x_min":0,"x_max":366,"ha":366,"o":"m -42 -166 l -31 -57 l 336 -57 l 325 -166 z"},"v":{"x_min":0,"x_max":419,"ha":419,"o":"m 101 0 l 47 578 l 201 578 l 209 203 l 294 578 l 447 578 l 270 0 z"},"O":{"x_min":0,"x_max":583,"ha":583,"o":"m 265 -11 q 198 -11 153 7 q 107 24 83 60 q 59 95 51 143 q 47 168 47 197 q 47 225 51 256 l 82 555 q 96 687 159 754 q 222 821 353 821 q 483 821 533 754 q 572 702 571 610 q 571 584 568 555 l 537 256 q 523 125 460 57 q 396 -11 265 -11 z m 278 113 q 299 113 313 121 q 328 129 335 145 q 343 161 346 176 q 350 191 353 213 l 393 599 q 394 619 394 637 q 394 641 394 646 q 394 667 380 682 q 366 696 339 696 q 319 696 305 688 q 291 681 283 665 q 276 650 272 635 q 269 621 267 599 l 227 213 q 225 190 225 170 q 225 168 225 165 q 225 143 238 128 q 251 113 278 113 z"},"(":{"x_min":0,"x_max":336,"ha":336,"o":"m 258 -182 q 222 -182 193 -173 q 164 -165 142 -149 q 121 -134 106 -110 q 90 -86 81 -60 q 71 -33 65 3 q 61 39 59 72 q 58 89 58 108 q 58 127 59 149 q 61 193 64 230 q 67 268 72 315 q 77 365 82 404 q 87 443 95 488 q 103 533 111 567 q 120 601 133 637 q 146 673 161 699 q 176 725 196 749 q 217 772 241 787 q 265 802 296 810 q 327 819 363 819 l 351 707 q 332 707 317 695 q 301 683 289 659 q 276 634 267 603 q 257 571 248 524 q 240 478 233 429 q 227 380 220 315 q 213 250 210 200 q 206 150 205 105 q 205 96 205 86 q 205 54 208 29 q 211 -2 219 -25 q 226 -48 239 -59 q 251 -70 270 -70 z"},"C":{"x_min":0,"x_max":560,"ha":560,"o":"m 264 -11 q 210 -11 170 1 q 129 14 105 37 q 80 60 65 94 q 51 127 49 169 q 48 183 48 197 q 48 227 51 260 l 82 548 q 88 614 106 663 q 123 711 154 748 q 186 784 235 802 q 284 821 352 821 q 404 821 443 810 q 482 799 506 778 q 530 758 544 729 q 558 700 560 664 q 561 649 561 633 q 561 611 559 587 l 552 516 l 380 516 l 388 596 q 389 608 390 613 q 390 618 391 628 q 392 639 391 644 q 391 649 389 658 q 388 667 386 671 q 383 675 379 681 q 375 687 370 690 q 364 692 356 694 q 349 696 339 696 q 322 696 309 690 q 296 684 289 675 q 281 666 276 651 q 271 635 269 623 q 267 610 265 591 l 226 217 q 224 199 224 184 q 224 157 230 140 q 241 113 278 113 q 294 113 307 120 q 319 126 326 134 q 333 143 338 159 q 343 175 344 186 q 346 197 349 217 l 357 300 l 529 300 l 522 231 q 516 176 500 134 q 485 92 456 58 q 426 24 378 7 q 330 -11 264 -11 z"},"W":{"x_min":0,"x_max":701,"ha":701,"o":"m 103 0 l 89 810 l 238 810 l 238 334 l 352 810 l 468 810 l 486 336 l 586 810 l 733 810 l 548 0 l 396 0 l 377 494 l 257 0 z"},"A":{"x_min":0,"x_max":547,"ha":547,"o":"m 235 279 l 324 279 l 313 595 z m -3 0 l 236 810 l 433 810 l 502 0 l 339 0 l 329 173 l 208 173 l 163 0 z"},"f":{"x_min":0,"x_max":319,"ha":319,"o":"m 49 0 l 98 469 l 42 469 l 53 578 l 109 578 l 114 618 q 117 646 121 667 q 125 687 133 708 q 141 729 153 742 q 166 756 184 767 q 202 778 229 784 q 255 789 289 789 q 323 789 366 784 l 353 665 q 325 669 319 669 q 279 669 274 623 l 270 578 l 344 578 l 333 469 l 258 469 l 209 0 z"},"Q":{"x_min":0,"x_max":583,"ha":583,"o":"m 278 113 q 299 113 313 121 q 328 129 335 145 q 343 161 346 176 q 350 191 353 213 l 393 599 q 394 619 394 637 q 394 641 394 646 q 394 667 380 682 q 366 696 339 696 q 319 696 305 688 q 291 681 283 665 q 276 650 272 635 q 269 621 267 599 l 227 213 q 225 190 225 170 q 225 168 225 165 q 225 143 238 128 q 251 113 278 113 z m 427 -167 q 396 -151 351 -104 q 307 -57 282 -11 q 276 -11 265 -11 q 198 -11 153 7 q 107 24 83 60 q 59 95 51 143 q 47 168 47 197 q 47 225 51 256 l 82 555 q 96 687 159 754 q 222 821 353 821 q 483 821 533 754 q 572 702 571 610 q 571 584 568 555 l 537 256 q 518 73 405 17 q 422 -9 451 -39 q 479 -69 500 -85 z"},"w":{"x_min":0,"x_max":598,"ha":598,"o":"m 83 0 l 58 578 l 191 578 l 199 245 l 281 578 l 397 578 l 403 239 l 487 578 l 612 578 l 463 0 l 327 0 l 310 327 l 219 0 z"},"-":{"x_min":0,"x_max":383,"ha":383,"o":"m 69 293 l 80 397 l 337 397 l 326 293 z"},"E":{"x_min":0,"x_max":445,"ha":445,"o":"m 35 0 l 120 810 l 481 810 l 469 689 l 283 689 l 262 486 l 404 486 l 391 363 l 249 363 l 224 119 l 411 119 l 398 0 z"},"s":{"x_min":0,"x_max":420,"ha":420,"o":"m 193 -10 q 120 -10 75 25 q 30 61 9 136 l 126 185 q 138 143 157 120 q 175 99 199 99 q 201 99 203 99 q 219 100 230 111 q 242 123 243 140 q 244 150 234 165 q 225 179 213 191 q 201 203 183 220 q 179 224 177 226 l 133 267 q 53 341 53 413 q 53 421 54 429 q 62 499 118 543 q 174 588 247 588 q 317 588 360 549 q 403 510 415 439 l 306 391 q 300 424 284 449 q 268 474 244 476 q 243 476 243 476 q 226 476 214 466 q 202 456 200 441 q 198 430 207 415 q 216 400 227 389 q 237 379 258 359 q 260 357 262 355 q 264 354 266 352 l 308 310 q 330 289 342 276 q 354 263 369 241 q 384 220 390 196 q 394 180 394 163 q 394 155 393 147 q 385 74 327 32 q 270 -10 193 -10 z"},">":{"x_min":0,"x_max":397,"ha":397,"o":"m 40 93 l 55 233 l 262 372 l 83 509 l 99 650 l 385 435 l 372 308 z"},"l":{"x_min":0,"x_max":272,"ha":272,"o":"m 33 0 l 118 810 l 279 810 l 194 0 z"},"8":{"x_min":0,"x_max":535,"ha":535,"o":"m 295 486 q 347 486 359 608 q 361 621 361 631 q 361 657 354 673 q 343 697 318 697 q 292 697 276 673 q 260 649 256 608 q 253 583 253 563 q 253 534 259 517 q 268 486 295 486 z m 256 109 q 272 109 284 117 q 297 125 304 137 q 311 149 316 167 q 322 185 324 198 q 326 211 328 229 q 331 257 331 275 q 331 277 331 278 q 331 295 328 313 q 324 333 313 344 q 301 354 282 354 q 266 354 254 346 q 242 339 235 328 q 228 317 222 299 q 216 281 214 266 q 211 250 209 229 q 207 211 207 198 q 207 194 207 190 q 207 179 208 166 q 209 148 214 137 q 219 125 229 117 q 240 109 256 109 z m 243 -13 q 46 -13 46 186 q 46 212 49 241 q 57 305 85 354 q 113 403 162 427 q 99 477 99 574 q 99 587 100 602 q 109 706 169 763 q 229 820 331 820 q 433 820 480 763 q 517 718 517 645 q 517 625 514 602 q 499 482 417 427 q 459 403 478 354 q 492 315 492 269 q 492 255 491 241 q 468 -13 243 -13 z"},"\\":{"x_min":0,"x_max":419,"ha":419,"o":"m 263 0 l 103 810 l 193 810 l 353 0 z"},"e":{"x_min":0,"x_max":467,"ha":467,"o":"m 211 354 l 293 354 l 299 412 q 300 421 300 429 q 300 449 293 459 q 284 474 263 474 q 243 474 232 457 q 221 441 216 401 z m 213 -10 q 117 -10 71 42 q 33 84 34 156 q 34 171 35 188 l 56 390 q 66 485 124 536 q 181 588 276 588 q 448 588 448 426 q 448 409 446 389 l 434 279 l 204 279 l 193 179 q 192 167 192 156 q 192 136 196 123 q 203 104 225 104 q 267 104 273 163 l 277 201 l 426 201 l 422 168 q 412 82 358 36 q 304 -10 213 -10 z"},"b":{"x_min":0,"x_max":503,"ha":503,"o":"m 245 95 q 245 95 246 95 q 267 95 278 114 q 290 134 293 166 l 320 426 q 321 434 321 441 q 321 460 315 473 q 308 490 288 489 q 287 489 285 489 q 264 488 237 470 l 199 110 q 221 96 245 95 z m 308 -10 q 248 -10 192 43 l 188 0 l 27 0 l 112 810 l 272 810 l 244 535 q 308 588 369 588 q 372 588 375 588 q 417 587 443 561 q 469 536 477 499 q 482 476 482 449 q 482 433 480 415 l 455 173 q 446 90 408 40 q 370 -10 308 -10 z"},"%":{"x_min":0,"x_max":1007,"ha":1007,"o":"m 310 0 l 639 810 l 732 810 l 403 0 z m 749 -1 q 648 -1 609 51 q 580 92 580 166 q 580 188 583 213 l 586 249 q 598 360 646 409 q 694 459 797 459 q 900 459 938 410 q 968 373 968 299 q 968 276 965 250 l 961 212 q 950 103 900 51 q 850 -1 749 -1 z m 760 102 q 775 102 786 107 q 797 113 804 121 q 811 130 815 146 q 820 163 823 178 q 825 193 828 219 l 831 245 q 834 282 834 306 q 834 331 823 342 q 812 354 786 354 q 770 354 759 349 q 749 345 742 338 q 735 331 730 315 q 726 299 724 286 q 722 272 719 246 l 716 218 q 712 182 712 156 q 712 130 724 116 q 735 102 760 102 z m 106 403 q 76 443 76 518 q 76 540 79 565 l 83 601 q 95 712 142 761 q 190 811 293 811 q 396 811 435 762 q 465 725 465 651 q 465 628 462 603 l 458 564 q 446 455 396 403 q 347 351 246 351 q 145 351 106 403 z m 256 455 q 271 455 282 460 q 293 465 300 474 q 307 482 312 499 q 317 515 319 530 q 321 545 324 571 l 327 597 q 331 634 331 659 q 331 683 320 695 q 309 707 283 707 q 267 707 256 702 q 245 697 238 690 q 231 683 227 667 q 223 652 220 638 q 218 624 216 598 l 212 571 q 208 536 208 511 q 209 509 209 508 q 209 482 220 468 q 231 455 256 455 z"},"m":{"x_min":0,"x_max":745,"ha":745,"o":"m 27 0 l 87 578 l 247 578 l 242 531 q 309 588 387 588 q 456 588 474 520 q 546 588 630 588 q 681 588 704 551 q 722 521 722 479 q 722 467 721 455 l 673 0 l 513 0 l 558 430 q 559 436 559 441 q 559 455 554 463 q 548 474 529 473 q 506 472 478 455 q 478 455 478 453 l 477 451 l 430 0 l 271 0 l 316 430 q 316 436 316 441 q 316 455 312 463 q 306 474 287 473 q 265 472 234 455 l 187 0 z"},"#":{"x_min":0,"x_max":531,"ha":531,"o":"m 234 372 l 313 372 l 338 484 l 260 484 z m 42 0 l 102 271 l 49 271 l 62 372 l 128 372 l 152 484 l 75 484 l 88 586 l 181 586 l 230 810 l 338 810 l 288 586 l 366 586 l 416 810 l 523 810 l 473 586 l 524 586 l 511 484 l 445 484 l 420 372 l 498 372 l 484 271 l 395 271 l 333 0 l 227 0 l 288 271 l 209 271 l 148 0 z"},",":{"x_min":0,"x_max":234,"ha":234,"o":"m 27 -140 l 22 -87 q 94 -70 102 0 l 18 0 l 34 150 l 186 150 l 172 19 q 156 -128 27 -140 z"},"n":{"x_min":0,"x_max":504,"ha":504,"o":"m 27 0 l 87 578 l 248 578 l 242 521 q 318 588 389 588 q 423 588 446 569 q 469 551 477 521 q 482 502 481 480 q 481 468 480 455 l 432 0 l 272 0 l 317 430 q 317 436 317 442 q 317 455 313 463 q 308 474 289 473 q 267 472 234 453 l 187 0 z"},"h":{"x_min":0,"x_max":506,"ha":506,"o":"m 27 0 l 112 810 l 273 810 l 243 526 q 313 588 391 588 q 441 588 465 550 q 483 521 483 479 q 483 467 482 455 l 435 0 l 274 0 l 319 430 q 319 437 319 442 q 319 455 315 463 q 310 474 291 473 q 269 473 235 452 l 188 0 z"},"z":{"x_min":0,"x_max":389,"ha":389,"o":"m 10 0 l 21 104 l 218 461 l 71 461 l 83 578 l 397 578 l 387 481 l 189 118 l 351 118 l 339 0 z"},"B":{"x_min":0,"x_max":585,"ha":585,"o":"m 262 485 l 297 485 q 356 485 380 511 q 403 537 410 595 q 411 603 411 611 q 410 648 390 668 q 365 691 311 691 l 284 691 z m 224 123 l 263 123 q 322 123 348 151 q 375 180 382 242 q 383 259 383 273 q 383 318 367 340 q 346 369 286 369 l 250 369 z m 35 0 l 120 810 l 330 810 q 375 810 410 805 q 445 800 478 786 q 511 772 531 750 q 551 727 561 688 q 566 666 566 638 q 566 619 563 598 q 546 455 428 435 q 496 425 527 376 q 552 336 552 273 q 552 257 551 240 q 540 118 470 59 q 401 0 283 0 z"},"K":{"x_min":0,"x_max":562,"ha":562,"o":"m 35 0 l 120 810 l 296 810 l 261 479 l 435 810 l 606 810 l 417 444 l 529 0 l 350 0 l 268 364 l 246 333 l 211 0 z"},"R":{"x_min":0,"x_max":586,"ha":586,"o":"m 260 465 l 304 465 q 360 465 386 493 q 412 521 418 580 q 419 595 419 608 q 419 644 407 664 q 389 691 338 691 l 284 691 z m 35 0 l 120 810 l 337 810 q 389 810 428 804 q 467 798 500 783 q 532 769 552 744 q 572 720 581 683 q 586 660 586 631 q 586 614 584 595 q 576 519 546 469 q 517 419 457 392 l 538 0 l 361 0 l 301 363 l 249 363 l 211 0 z"},"T":{"x_min":0,"x_max":444,"ha":444,"o":"m 110 0 l 182 680 l 56 680 l 70 810 l 496 810 l 482 680 l 358 680 l 286 0 z"},"P":{"x_min":0,"x_max":560,"ha":560,"o":"m 260 469 l 316 469 q 366 469 385 494 q 404 518 410 578 q 412 600 412 618 q 412 627 412 635 q 410 659 393 673 q 375 686 338 686 l 283 686 z m 35 0 l 120 810 l 386 810 q 493 810 540 750 q 577 702 578 619 q 578 598 575 575 q 569 521 553 481 q 537 441 514 416 q 492 390 460 375 q 428 359 394 353 q 360 347 318 347 l 248 347 l 211 0 z"},"|":{"x_min":0,"x_max":262,"ha":262,"o":"m 21 -177 l 125 810 l 258 810 l 154 -177 z"},"t":{"x_min":0,"x_max":352,"ha":352,"o":"m 190 -7 q 153 -5 127 6 q 102 17 88 36 q 75 56 68 81 q 62 104 62 130 q 62 133 62 136 q 62 165 65 198 l 94 473 l 39 473 l 50 578 l 104 578 l 124 753 l 285 753 l 267 578 l 350 578 l 339 473 l 256 473 l 224 171 q 224 167 224 164 q 224 125 271 123 q 279 123 289 124 q 298 125 307 126 l 315 127 l 302 1 q 241 -7 202 -7 q 196 -7 190 -7 z"},"M":{"x_min":0,"x_max":699,"ha":699,"o":"m 32 0 l 130 810 l 318 810 l 359 326 l 509 810 l 690 810 l 619 0 l 492 0 l 537 540 l 382 0 l 273 0 l 229 542 l 160 0 z"},"g":{"x_min":0,"x_max":496,"ha":496,"o":"m 249 275 q 278 275 289 299 q 300 322 307 382 q 311 414 311 436 q 311 454 308 466 q 302 491 272 491 q 261 491 253 489 q 246 486 240 479 q 234 471 231 464 q 227 457 224 442 q 222 427 220 416 q 218 404 216 382 q 212 354 212 333 q 212 316 215 303 q 221 275 249 275 z m 235 -72 q 275 -72 294 -64 q 314 -55 317 -35 q 319 -27 319 -21 q 319 -6 311 2 q 298 14 262 18 l 176 28 q 148 -7 146 -30 q 146 -32 146 -35 q 146 -53 163 -62 q 183 -72 235 -72 z m 224 -173 q 200 -173 181 -173 q 162 -172 136 -169 q 110 -167 91 -163 q 71 -158 51 -150 q 31 -142 18 -131 q 5 -119 -2 -103 q -7 -89 -7 -74 q -7 -69 -7 -65 q 0 -5 88 50 q 54 64 39 80 q 24 95 23 116 q 23 119 23 122 q 23 151 42 174 q 62 199 105 230 q 77 252 64 287 q 56 311 56 344 q 56 359 58 375 q 69 483 126 535 q 184 588 279 588 q 371 588 405 537 q 447 580 490 601 l 512 612 l 541 532 q 525 528 492 514 q 458 500 439 489 q 457 456 457 406 q 457 392 456 376 q 446 282 394 230 q 342 178 247 178 q 225 178 198 183 q 172 188 158 195 q 137 170 137 156 q 137 140 188 133 q 200 131 245 125 q 291 120 310 117 q 391 106 421 73 q 446 46 446 -1 q 446 -11 445 -22 q 438 -95 386 -134 q 335 -173 224 -173 z"},"j":{"x_min":0,"x_max":273,"ha":273,"o":"m 110 675 l 122 790 l 283 790 l 271 675 z m -51 -164 l -40 -49 q -22 -53 -11 -53 q 34 -53 39 -3 l 100 578 l 261 578 l 198 -22 q 190 -93 147 -135 q 104 -177 32 -177 q -8 -177 -51 -164 z"},"i":{"x_min":0,"x_max":264,"ha":264,"o":"m 98 675 l 110 790 l 272 790 l 260 675 z m 28 0 l 89 578 l 249 578 l 188 0 z"},"y":{"x_min":0,"x_max":444,"ha":444,"o":"m 23 -166 l 35 -55 q 89 -55 111 -44 q 133 -33 133 2 q 133 24 122 92 l 39 578 l 191 578 l 228 240 l 318 578 l 470 578 l 270 -31 q 226 -166 50 -166 q 48 -166 45 -166 z"},"@":{"x_min":0,"x_max":951,"ha":951,"o":"m 472 214 q 516 221 529 248 l 584 482 q 584 488 575 492 q 566 495 558 495 q 521 495 489 466 q 457 437 438 396 q 420 354 416 309 q 414 298 414 287 q 414 259 424 239 q 436 214 467 214 q 469 214 472 214 z m 435 -128 q 214 -128 119 -3 q 54 81 54 208 q 54 271 69 342 q 97 484 168 589 q 240 694 352 752 q 464 810 604 810 q 672 810 728 795 q 784 780 823 753 q 863 726 891 688 q 918 649 931 603 q 942 556 944 501 q 944 495 945 488 q 945 439 934 387 q 927 348 912 308 q 897 269 872 231 q 847 192 816 163 q 785 134 741 116 q 697 98 648 98 q 604 98 570 118 q 536 137 528 174 q 514 146 487 127 q 459 109 427 106 q 418 105 411 105 q 367 104 334 128 q 297 155 283 203 q 274 233 274 268 q 274 288 277 310 q 282 347 295 387 q 308 426 330 467 q 353 508 382 540 q 411 572 451 592 q 492 612 537 612 q 553 612 564 607 q 576 601 584 588 q 592 574 594 570 q 597 565 602 550 q 603 547 603 546 l 620 606 l 747 606 l 667 274 q 657 230 657 211 q 657 206 657 203 q 660 190 668 188 q 675 187 681 187 q 719 187 760 238 q 808 297 823 385 q 833 443 833 492 q 833 542 817 583 q 801 623 772 652 q 743 681 695 696 q 646 712 583 712 q 516 712 458 693 q 399 674 356 641 q 312 608 278 561 q 244 515 222 461 q 200 407 188 345 q 172 280 172 225 q 172 207 174 189 q 181 120 212 72 q 243 23 305 -3 q 368 -29 460 -29 q 500 -29 558 -20 q 616 -11 661 3 l 668 -96 q 533 -128 435 -128 z"},".":{"x_min":0,"x_max":240,"ha":240,"o":"m 21 0 l 37 152 l 189 152 l 173 0 z"},"p":{"x_min":0,"x_max":502,"ha":502,"o":"m 243 95 q 243 95 244 95 q 265 95 276 114 q 288 134 292 166 l 319 426 q 320 434 320 440 q 320 459 313 473 q 305 490 286 489 q 284 489 282 489 q 264 488 236 470 l 198 110 q 221 96 243 95 z m 7 -190 l 87 578 l 248 578 l 244 536 q 308 588 368 588 q 371 588 374 588 q 417 587 442 561 q 468 536 476 499 q 481 476 481 449 q 481 433 479 415 l 454 173 q 445 90 407 40 q 369 -10 307 -10 q 246 -10 191 43 l 167 -190 z"},"X":{"x_min":0,"x_max":512,"ha":512,"o":"m -18 0 l 187 436 l 74 810 l 241 810 l 308 587 l 404 810 l 552 810 l 365 392 l 482 0 l 317 0 l 244 244 l 129 0 z"},"*":{"x_min":0,"x_max":422,"ha":422,"o":"m 194 451 l 105 506 l 188 608 l 84 650 l 130 746 l 223 692 l 222 809 l 342 809 l 317 691 l 421 747 l 447 649 l 334 608 l 396 507 l 295 451 l 256 558 z"},"Y":{"x_min":0,"x_max":492,"ha":492,"o":"m 139 0 l 173 329 l 69 810 l 234 810 l 286 546 l 386 810 l 546 810 l 342 329 l 308 0 z"},"c":{"x_min":0,"x_max":465,"ha":465,"o":"m 212 -10 q 117 -10 71 42 q 34 84 33 155 q 33 170 35 187 l 57 392 q 66 485 123 536 q 180 588 275 588 q 369 588 414 544 q 451 507 451 441 q 451 428 450 414 l 443 354 l 289 354 l 296 417 q 297 428 297 437 q 297 456 292 465 q 284 478 264 478 q 244 478 234 462 q 223 446 219 407 l 194 170 q 193 156 193 146 q 193 126 198 116 q 206 102 225 102 q 245 102 255 115 q 266 128 269 160 l 275 208 l 429 208 l 424 166 q 415 80 360 35 q 305 -10 212 -10 z"},"!":{"x_min":0,"x_max":253,"ha":253,"o":"m 92 204 l 109 808 l 268 808 l 147 204 z m 21 0 l 37 150 l 189 150 l 173 0 z"},"/":{"x_min":0,"x_max":419,"ha":419,"o":"m 18 0 l 348 810 l 438 810 l 107 0 z"},"[":{"x_min":0,"x_max":335,"ha":335,"o":"m 8 -187 l 113 810 l 364 810 l 358 747 l 234 747 l 142 -123 l 266 -123 l 259 -187 z"},"6":{"x_min":0,"x_max":535,"ha":535,"o":"m 264 110 q 296 110 310 142 q 323 174 331 247 q 333 266 334 275 q 334 284 335 300 q 336 316 336 324 q 335 332 334 343 q 333 354 329 359 q 326 365 321 371 q 316 376 308 379 q 300 381 291 381 q 271 381 255 370 q 239 359 230 346 l 217 216 q 215 199 215 185 q 215 110 264 110 z m 249 -12 q 191 -12 149 8 q 108 28 86 64 q 63 101 56 148 q 51 175 51 205 q 51 229 54 255 l 84 543 q 91 606 106 654 q 121 701 149 740 q 177 780 224 800 q 271 821 335 821 q 446 821 488 769 q 522 728 522 651 q 522 633 521 613 q 521 612 520 606 q 519 600 519 599 l 364 599 q 367 627 367 646 q 367 650 367 653 q 366 674 356 685 q 346 696 323 696 q 289 696 275 663 q 260 629 250 534 l 242 459 q 257 481 285 493 q 313 505 348 506 q 351 506 354 506 q 389 506 415 495 q 444 483 461 463 q 479 442 489 413 q 499 383 500 348 q 500 339 500 329 q 500 302 498 273 q 491 208 475 158 q 459 108 430 69 q 401 29 356 9 q 310 -12 249 -12 z"},"r":{"x_min":0,"x_max":369,"ha":369,"o":"m 29 0 l 89 578 l 250 578 l 240 483 q 304 585 367 585 q 376 585 389 582 l 374 438 q 358 442 346 442 q 279 438 229 374 l 189 0 z"},"2":{"x_min":0,"x_max":535,"ha":535,"o":"m 31 0 l 43 116 l 267 416 q 271 422 293 450 q 314 478 322 490 q 331 502 345 525 q 359 548 366 569 q 373 589 375 609 q 375 618 375 626 q 376 652 364 667 q 352 682 331 683 q 326 683 320 682 q 290 678 272 650 q 255 623 250 568 l 246 530 l 86 530 l 90 571 q 96 626 114 671 q 131 716 161 750 q 190 785 236 803 q 282 822 341 822 q 448 822 498 766 q 540 719 540 641 q 540 625 538 607 q 536 592 532 577 q 529 562 526 549 q 522 537 515 521 q 507 505 503 496 q 500 488 488 470 q 477 453 474 447 q 470 441 456 423 q 442 404 440 401 q 437 397 421 377 q 404 356 403 354 l 229 129 l 465 129 l 451 0 z"},"{":{"x_min":0,"x_max":371,"ha":371,"o":"m 295 -195 q 191 -195 145 -175 q 99 -155 88 -108 q 83 -85 83 -54 q 83 -22 89 19 l 98 104 q 101 134 103 151 q 104 168 105 187 q 106 206 105 215 q 104 224 102 234 q 100 244 96 247 q 92 250 85 254 q 78 257 70 258 q 62 259 50 259 l 62 373 q 79 373 88 374 q 98 375 107 382 q 115 389 120 397 q 124 405 129 426 q 133 446 136 467 q 139 488 143 528 l 152 613 q 155 646 159 668 q 162 691 168 714 q 175 737 183 751 q 191 766 205 780 q 218 794 236 802 q 253 810 277 816 q 302 822 333 824 q 363 827 403 827 l 391 719 q 373 719 361 718 q 349 716 339 711 q 329 707 323 700 q 318 693 313 679 q 309 665 306 648 q 304 632 301 605 l 291 509 q 281 419 257 373 q 234 327 185 316 q 231 305 245 258 q 253 231 253 189 q 253 160 250 123 l 240 27 q 237 0 236 -17 q 235 -33 237 -47 q 239 -61 243 -68 q 247 -75 256 -80 q 265 -84 277 -86 q 288 -87 307 -87 z"},"9":{"x_min":0,"x_max":535,"ha":535,"o":"m 287 428 q 320 428 343 464 l 356 593 q 358 617 358 637 q 358 641 358 645 q 358 668 347 683 q 336 699 313 699 q 281 699 268 667 q 254 635 247 562 q 242 516 242 489 q 242 474 244 465 q 251 428 287 428 z m 238 -12 q 127 -12 85 40 q 51 82 52 158 q 52 176 54 197 q 55 199 55 210 l 210 210 q 208 185 208 167 q 208 161 208 156 q 209 135 219 124 q 230 113 252 113 q 287 113 300 146 q 313 178 323 275 l 331 350 q 316 328 289 316 q 261 304 227 303 q 224 303 222 303 q 187 303 160 314 q 131 327 114 349 q 97 371 87 402 q 76 433 75 469 q 75 478 75 488 q 75 515 78 544 q 92 677 151 749 q 210 821 326 821 q 384 821 426 802 q 467 784 490 749 q 512 714 520 667 q 524 642 524 613 q 524 589 521 562 l 490 267 q 485 216 475 177 q 465 137 446 101 q 426 64 399 40 q 372 16 331 2 q 291 -12 238 -12 z"}," ":{"x_min":0,"x_max":232,"ha":232,"o":""},"I":{"x_min":0,"x_max":298,"ha":298,"o":"m 37 0 l 122 810 l 297 810 l 212 0 z"},"H":{"x_min":0,"x_max":601,"ha":601,"o":"m 35 0 l 120 810 l 296 810 l 262 481 l 392 481 l 426 810 l 602 810 l 517 0 l 341 0 l 378 355 l 249 355 l 211 0 z"},"4":{"x_min":0,"x_max":535,"ha":535,"o":"m 167 308 l 287 308 l 322 647 z m 254 0 l 274 188 l 28 188 l 42 313 l 303 810 l 487 810 l 435 308 l 513 308 l 500 188 l 422 188 l 402 0 z"},"~":{"x_min":0,"x_max":481,"ha":481,"o":"m 337 334 q 313 334 281 349 q 249 364 220 379 q 192 394 176 394 q 164 394 142 381 q 121 368 103 346 l 59 414 q 84 449 121 477 q 157 506 187 506 q 211 506 243 491 q 275 477 303 462 q 331 448 346 448 q 371 448 419 495 l 469 437 q 447 398 408 366 q 370 334 337 334 z"},"D":{"x_min":0,"x_max":581,"ha":581,"o":"m 35 0 l 120 810 l 322 810 q 401 810 452 795 q 502 781 530 749 q 558 718 566 671 q 570 647 570 616 q 570 588 566 554 l 536 262 q 528 191 510 143 q 493 96 458 63 q 424 30 371 15 q 318 0 240 0 z m 224 122 l 253 122 q 278 122 295 127 q 312 132 322 140 q 332 147 338 164 q 345 180 347 195 q 350 210 353 238 l 389 581 q 392 603 392 620 q 392 632 391 642 q 388 666 369 676 q 351 687 311 687 l 283 687 z"},"^":{"x_min":0,"x_max":477,"ha":477,"o":"m 56 475 l 234 810 l 363 810 l 471 475 l 334 475 l 284 673 l 192 475 z"},"0":{"x_min":0,"x_max":535,"ha":535,"o":"m 242 -14 q 136 -14 85 49 q 44 100 44 181 q 44 199 46 218 l 85 584 q 97 694 158 758 q 220 821 330 821 q 438 821 487 758 q 526 707 526 625 q 526 605 524 584 l 486 218 q 475 113 411 49 q 347 -14 242 -14 z m 257 131 q 311 131 318 222 l 356 580 q 357 592 358 599 q 358 607 358 620 q 358 633 356 641 q 354 649 349 658 q 344 667 335 671 q 327 675 314 675 q 302 675 292 671 q 282 667 276 658 q 270 649 265 641 q 261 633 259 620 q 256 606 255 599 q 254 593 252 580 l 215 222 q 214 208 214 196 q 214 131 257 131 z"},"F":{"x_min":0,"x_max":431,"ha":431,"o":"m 35 0 l 120 810 l 469 810 l 457 690 l 284 690 l 262 483 l 410 483 l 396 360 l 249 360 l 211 0 z"},"`":{"x_min":0,"x_max":308,"ha":308,"o":"m 208 608 l 103 810 l 267 810 l 307 608 z"},"k":{"x_min":0,"x_max":534,"ha":534,"o":"m 27 0 l 112 810 l 271 810 l 224 360 l 387 578 l 567 578 l 391 342 l 505 0 l 330 0 l 258 275 l 209 220 l 187 0 z"},"u":{"x_min":0,"x_max":500,"ha":500,"o":"m 125 -10 q 75 -10 52 27 q 34 57 33 99 q 33 111 35 124 l 82 578 l 243 578 l 197 144 q 197 138 197 132 q 197 118 201 110 q 208 100 227 100 q 247 101 276 119 l 324 578 l 485 578 l 424 0 l 264 0 l 269 53 q 196 -10 125 -10 z"},"]":{"x_min":0,"x_max":325,"ha":325,"o":"m -23 -187 l -16 -124 l 107 -124 l 198 746 l 75 746 l 81 810 l 332 810 l 228 -187 z"},"U":{"x_min":0,"x_max":584,"ha":584,"o":"m 56 142 q 52 165 52 192 q 52 222 57 256 l 115 810 l 288 810 l 228 231 q 225 214 225 197 q 225 194 225 190 q 226 169 229 153 q 233 137 246 127 q 259 117 280 117 q 297 117 310 124 q 323 130 331 141 q 339 151 344 167 q 350 184 352 198 q 354 212 356 231 l 417 810 l 591 810 l 533 256 q 526 189 510 141 q 494 94 463 58 q 433 23 384 6 q 335 -11 267 -11 q 198 -11 153 6 q 108 24 85 58 q 62 92 56 142 z"},"o":{"x_min":0,"x_max":480,"ha":480,"o":"m 214 -10 q 120 -10 72 39 q 33 80 33 151 q 33 166 34 181 l 57 397 q 66 490 124 539 q 182 588 276 588 q 371 588 419 539 q 459 499 459 428 q 459 413 458 397 l 435 181 q 425 88 367 39 q 309 -10 214 -10 z m 225 98 q 249 98 260 116 q 271 134 275 170 l 300 408 q 301 419 301 429 q 302 450 297 462 q 290 480 266 480 q 242 480 231 461 q 220 443 216 408 l 191 170 q 190 159 190 149 q 190 129 195 116 q 202 98 225 98 z"},"N":{"x_min":0,"x_max":558,"ha":558,"o":"m 35 0 l 120 810 l 244 810 l 372 414 l 413 810 l 559 810 l 474 0 l 356 0 l 230 425 l 186 0 z"},"+":{"x_min":0,"x_max":448,"ha":448,"o":"m 167 207 l 184 367 l 41 367 l 50 463 l 194 463 l 210 620 l 317 620 l 301 463 l 446 463 l 437 367 l 291 367 l 274 207 z"},"G":{"x_min":0,"x_max":577,"ha":577,"o":"m 243 -12 q 182 -12 141 8 q 99 28 78 65 q 58 102 50 154 q 47 178 47 205 q 47 235 51 269 l 80 538 q 86 605 104 656 q 122 706 153 744 q 184 782 234 802 q 283 821 351 821 q 417 821 461 804 q 505 788 529 756 q 552 724 560 682 q 564 658 564 629 q 564 607 562 583 l 556 533 l 385 533 l 391 596 q 394 624 394 646 q 394 668 381 682 q 368 696 340 696 q 323 696 310 690 q 296 683 289 674 q 281 665 276 649 q 271 633 268 620 q 266 607 264 588 l 226 222 q 225 205 225 190 q 225 178 226 167 q 228 144 242 129 q 256 114 284 114 q 356 114 368 226 l 377 314 l 302 314 l 313 420 l 546 420 l 502 0 l 386 0 l 383 69 q 339 -12 243 -12 z"},"q":{"x_min":0,"x_max":501,"ha":501,"o":"m 231 94 q 250 94 278 110 l 316 472 q 292 486 273 486 q 251 486 239 468 q 226 450 223 421 l 196 162 q 195 153 195 146 q 195 127 201 113 q 209 95 231 94 z m 247 -190 l 271 46 q 210 -10 152 -10 q 151 -10 150 -10 q 85 -10 56 36 q 33 71 33 132 q 33 151 36 173 l 60 401 q 68 485 108 537 q 147 588 214 588 q 274 588 323 540 l 327 578 l 487 578 l 407 -190 z"},"d":{"x_min":0,"x_max":500,"ha":500,"o":"m 231 94 q 250 94 276 108 l 314 473 q 292 486 273 486 q 230 486 223 421 l 196 162 q 195 153 195 145 q 195 126 201 113 q 208 95 231 94 z m 152 -10 q 152 -10 151 -10 q 85 -10 56 36 q 34 70 34 130 q 34 150 36 173 l 60 401 q 69 485 108 537 q 148 588 215 588 q 274 588 322 542 l 350 810 l 510 810 l 425 0 l 265 0 l 269 43 q 210 -10 152 -10 z"},"1":{"x_min":0,"x_max":535,"ha":535,"o":"m 186 0 l 253 644 l 134 598 l 147 721 q 185 737 236 764 q 287 790 307 810 l 436 810 l 351 0 z"},"5":{"x_min":0,"x_max":535,"ha":535,"o":"m 245 -14 q 193 -14 156 -2 q 120 9 99 31 q 78 53 67 84 q 57 114 56 153 q 56 157 56 162 q 56 197 60 238 l 219 238 q 216 205 216 181 q 216 152 221 136 q 229 108 265 108 q 267 108 268 108 q 280 109 289 114 q 298 118 304 125 q 311 131 316 144 q 322 157 325 168 q 329 179 332 200 q 335 220 337 235 q 338 250 341 278 q 345 318 345 350 q 345 381 332 400 q 319 418 292 418 q 241 418 220 346 l 78 346 l 139 810 l 518 810 l 503 670 l 258 670 l 231 502 q 244 516 273 527 q 301 537 335 541 q 345 542 354 542 q 433 542 470 481 q 500 431 500 345 q 500 316 497 284 q 492 238 485 202 q 478 167 466 131 q 454 95 435 70 q 416 45 390 25 q 364 5 328 -4 q 291 -14 245 -14 z"}}}
